<!-- automate.svg -->
<svg width="64" height="64" viewBox="0 0 24 24" fill="none" xmlns="http://www.w3.org/2000/svg">
  <path fill="#00b7ff" d="M12 8a4 4 0 1 0 0 8a4 4 0 0 0 0-8zM2 13h2.07a8.05 8.05 0 0 0 .58 1.92l-1.47 1.47l1.41 1.41l1.47-1.47A8.05 8.05 0 0 0 11 19.93V22h2v-2.07a8.05 8.05 0 0 0 1.92-.58l1.47 1.47l1.41-1.41l-1.47-1.47A8.05 8.05 0 0 0 19.93 13H22v-2h-2.07a8.05 8.05 0 0 0-.58-1.92l1.47-1.47l-1.41-1.41l-1.47 1.47A8.05 8.05 0 0 0 13 4.07V2h-2v2.07a8.05 8.05 0 0 0-1.92.58l-1.47-1.47l-1.41 1.41l1.47 1.47A8.05 8.05 0 0 0 4.07 11H2v2z"/>
</svg>
